<?xml version="1.0" standalone="no"?>
<!DOCTYPE svg PUBLIC "-//W3C//DTD SVG 20010904//EN"
 "http://www.w3.org/TR/2001/REC-SVG-20010904/DTD/svg10.dtd">
<svg version="1.0" xmlns="http://www.w3.org/2000/svg"
 width="512.000000pt" height="512.000000pt" viewBox="0 0 512.000000 512.000000"
 preserveAspectRatio="xMidYMid meet">

<g transform="translate(0.000000,512.000000) scale(0.100000,-0.100000)"
fill="#000000" stroke="none">
<path d="M1665 4076 c-181 -67 -338 -125 -347 -128 -16 -7 -15 -13 8 -75 14
-37 27 -69 29 -71 1 -1 161 55 354 125 277 100 351 131 347 143 -26 76 -46
125 -53 126 -4 1 -156 -53 -338 -120z"/>
<path d="M2954 3924 l-51 -52 486 -484 486 -484 51 53 50 52 -485 484 -486
484 -51 -53z"/>
<path d="M2157 3838 c-19 -29 -98 -152 -177 -273 -78 -121 -153 -237 -166
-257 l-24 -38 -229 115 -229 114 -13 -32 c-7 -18 -23 -48 -35 -68 l-22 -35
219 -110 c120 -60 219 -112 219 -115 0 -8 -228 -360 -244 -377 -10 -10 -41 37
-156 230 -79 134 -144 244 -145 246 -2 2 -28 -13 -58 -32 -31 -20 -61 -36 -67
-36 -5 0 -10 -2 -10 -4 0 -2 74 -129 165 -282 91 -153 165 -281 165 -285 0 -3
-68 -111 -151 -238 -82 -128 -152 -238 -154 -244 -4 -9 75 -66 116 -85 4 -2
64 86 134 195 71 109 133 203 139 210 8 8 108 -153 375 -603 200 -338 366
-614 368 -614 7 0 123 80 123 85 0 2 -169 289 -376 637 -207 348 -379 639
-381 645 -4 11 293 483 303 483 3 0 45 -21 95 -46 50 -25 92 -44 93 -42 0 2
15 33 33 69 l31 65 -84 42 c-58 29 -83 46 -78 55 4 6 91 140 192 296 192 298
200 311 184 311 -5 0 -33 16 -62 35 -29 19 -54 35 -56 35 -2 0 -19 -24 -37
-52z"/>
<path d="M3116 2773 c-11 -64 -17 -123 -11 -123 10 0 584 -79 623 -85 31 -6
32 -5 32 32 0 21 4 55 9 76 8 33 7 38 -13 42 -25 6 -605 85 -623 85 -6 0 -14
-12 -17 -27z"/>
<path d="M2480 1804 l0 -444 80 0 80 0 0 444 0 443 -80 0 -80 0 0 -443z"/>
<path d="M3404 1717 l-471 -494 31 -34 c17 -19 39 -45 49 -59 l17 -25 65 65
c35 36 250 260 478 499 l415 435 -56 53 c-31 29 -57 53 -57 53 0 0 -212 -222
-471 -493z"/>
<path d="M1297 1349 l-36 -70 371 -185 c204 -102 371 -184 372 -182 1 2 14 35
28 74 l25 70 -362 181 -362 182 -36 -70z"/>
</g>
</svg>
