<?xml version="1.0" encoding="UTF-8"?>
<svg version="1.1" xmlns="http://www.w3.org/2000/svg" width="512" height="512">
<path d="M0 0 C1.77437439 -0.00430527 1.77437439 -0.00430527 3.58459473 -0.00869751 C6.07218915 -0.01072845 8.5597999 -0.00526695 11.04736328 0.00732422 C14.83272358 0.0233907 18.61701625 0.00744125 22.40234375 -0.01171875 C24.8307315 -0.00973615 27.25911859 -0.00589212 29.6875 0 C30.80757446 -0.00607269 31.92764893 -0.01214539 33.08166504 -0.0184021 C44.25523154 0.08052284 53.34311184 2.26012106 61.34375 10.3984375 C68.93517346 20.08684945 69.68512237 30.38900041 69.59375 42.3359375 C69.60535156 43.84704102 69.60535156 43.84704102 69.6171875 45.38867188 C69.58722842 57.03526463 68.51590044 66.87291966 60.296875 75.5625 C51.372029 84.02571603 43.50804147 84.85980848 31.5703125 84.83203125 C30.25139008 84.8372731 28.93246765 84.84251495 27.57357788 84.84791565 C24.79146704 84.8568097 22.00964381 84.8544672 19.22753906 84.84448242 C15.6882501 84.8330087 12.14996132 84.85319706 8.6108036 84.88239956 C5.86184537 84.9008794 3.11312153 84.90044576 0.36411667 84.89476204 C-1.56664513 84.89453714 -3.49738529 84.91132693 -5.42807007 84.92857361 C-14.49194672 84.85740213 -21.35326287 83.29467884 -28.90625 78.2109375 C-38.67131658 68.22393759 -40.01508994 58.61859519 -39.97192383 45.09960938 C-39.96876709 43.03461696 -39.9922716 40.97106584 -40.01757812 38.90625 C-40.07355172 27.43347516 -38.77085427 17.95465289 -30.65625 9.3984375 C-21.8058528 1.004835 -11.77519481 -0.06384142 0 0 Z " fill="#000001" transform="translate(308.65625,427.6015625)"/>
<path d="M0 0 C1.77437439 -0.00430527 1.77437439 -0.00430527 3.58459473 -0.00869751 C6.07218915 -0.01072845 8.5597999 -0.00526695 11.04736328 0.00732422 C14.83272358 0.0233907 18.61701625 0.00744125 22.40234375 -0.01171875 C24.8307315 -0.00973615 27.25911859 -0.00589212 29.6875 0 C30.80757446 -0.00607269 31.92764893 -0.01214539 33.08166504 -0.0184021 C43.68127133 0.07544129 52.48838465 1.94851036 60.34375 9.3984375 C68.95846207 18.48197744 69.84721013 28.83443172 69.73486328 40.90307617 C69.71874602 42.96144577 69.73480473 45.01786074 69.75390625 47.07617188 C69.77290841 58.43047693 67.94421203 67.64639031 60.34375 76.3984375 C53.98568378 81.73100917 47.58135601 84.62775659 39.20581055 84.68896484 C37.41816536 84.7081044 37.41816536 84.7081044 35.59440613 84.72763062 C33.68175713 84.73096909 33.68175713 84.73096909 31.73046875 84.734375 C30.39296836 84.74081223 29.05546934 84.74754126 27.7179718 84.75454712 C24.91977681 84.76648904 22.12170498 84.77023121 19.32348633 84.76904297 C15.75942663 84.76884008 12.19616705 84.79612304 8.63229656 84.83058739 C5.87053388 84.8529615 3.10896046 84.85687731 0.34711647 84.85582352 C-1.59867144 84.85929322 -3.54440028 84.88088998 -5.49006653 84.90292358 C-15.96202183 84.8492809 -23.20449429 82.50945084 -30.8671875 75.3046875 C-39.6651095 65.9304824 -40.00101654 54.67927931 -39.90625 42.3359375 C-39.91398438 41.32466797 -39.92171875 40.31339844 -39.9296875 39.27148438 C-39.89907385 27.38573448 -38.23933561 17.09480757 -29.61328125 8.3203125 C-20.79003804 0.8869253 -11.21721735 -0.06081624 0 0 Z " fill="#010100" transform="translate(173.65625,427.6015625)"/>
<path d="M0 0 C1.27644379 -0.00145523 2.55288757 -0.00291046 3.86801147 -0.00440979 C6.55286925 -0.00275727 9.23628219 0.0066048 11.92089844 0.02954102 C15.34139868 0.05798147 18.76100699 0.05516046 22.18157387 0.0424509 C25.47527231 0.03378149 28.76882927 0.04895389 32.0625 0.0625 C33.28039215 0.05956436 34.4982843 0.05662872 35.75308228 0.05360413 C45.78609666 0.16442509 53.79854037 1.99233219 61.21875 9.28515625 C69.87602606 18.66689056 70.60283291 27.72464896 70.63867188 40.14135742 C70.64832669 42.16042091 70.67936641 44.17844262 70.7109375 46.19726562 C70.75098773 56.28491822 70.01496699 65.44896329 63.3984375 73.49609375 C56.33786966 80.51130463 49.76394395 84.57478932 39.68701172 84.6730957 C38.53836639 84.68593094 37.38972107 84.69876617 36.20626831 84.71199036 C34.96773102 84.71937729 33.72919373 84.72676422 32.453125 84.734375 C31.17293488 84.74244675 29.89274475 84.75051849 28.57376099 84.75883484 C25.86200089 84.77383837 23.15026671 84.78368587 20.43847656 84.79125977 C16.98883611 84.80228292 13.53984804 84.83664361 10.09043694 84.87643147 C6.7738612 84.909101 3.45734905 84.91339416 0.140625 84.921875 C-1.08576691 84.93938309 -2.31215881 84.95689117 -3.57571411 84.97492981 C-14.64595333 84.94719095 -22.63958833 82.32570575 -30.69140625 74.62890625 C-38.64311876 65.750307 -38.93809843 53.86114628 -38.8515625 42.49609375 C-38.85929687 41.4803125 -38.86703125 40.46453125 -38.875 39.41796875 C-38.84634044 28.24074058 -37.48975258 18.13178235 -29.84765625 9.51953125 C-21.08235473 1.19692173 -11.71355903 -0.10840759 0 0 Z " fill="#010202" transform="translate(374.6015625,213.50390625)"/>
<path d="M0 0 C1.14864532 -0.01283524 2.29729065 -0.02567047 3.48074341 -0.03889465 C5.33854935 -0.04997505 5.33854935 -0.04997505 7.23388672 -0.0612793 C8.51407684 -0.06935104 9.79426697 -0.07742279 11.11325073 -0.08573914 C13.82501083 -0.10074266 16.536745 -0.11059016 19.24853516 -0.11816406 C22.69817561 -0.12918722 26.14716367 -0.16354791 29.59657478 -0.20333576 C32.91315052 -0.2360053 36.22966267 -0.24029845 39.54638672 -0.2487793 C40.77277863 -0.26628738 41.99917053 -0.28379547 43.26272583 -0.30183411 C54.33296505 -0.27409525 62.32660004 2.34738996 70.37841797 10.04418945 C78.33013048 18.9227887 78.62511015 30.81194942 78.53857422 42.17700195 C78.55017578 43.70067383 78.55017578 43.70067383 78.56201172 45.25512695 C78.53335216 56.43235512 77.1767643 66.54131336 69.53466797 75.15356445 C60.76936645 83.47617398 51.40057075 84.78150329 39.68701172 84.6730957 C37.77234604 84.67527855 37.77234604 84.67527855 35.81900024 84.67750549 C33.13414247 84.67585298 30.45072953 84.6664909 27.76611328 84.64355469 C24.34561304 84.61511423 20.92600473 84.61793524 17.50543785 84.6306448 C14.2117394 84.63931421 10.91818245 84.62414182 7.62451172 84.6105957 C6.40661957 84.61353134 5.18872742 84.61646698 3.93392944 84.61949158 C-6.09908494 84.50867062 -14.11152865 82.68076351 -21.53173828 75.38793945 C-30.18901434 66.00620515 -30.91582119 56.94844675 -30.95166016 44.53173828 C-30.96131497 42.51267479 -30.99235469 40.49465308 -31.02392578 38.47583008 C-31.06397601 28.38817748 -30.32795527 19.22413242 -23.71142578 11.17700195 C-16.65085794 4.16179108 -10.07693223 0.09830638 0 0 Z " fill="#030201" transform="translate(97.71142578125,213.822998046875)"/>
<path d="M0 0 C1.74108032 -0.00430527 1.74108032 -0.00430527 3.51733398 -0.00869751 C5.95785005 -0.01072813 8.39838277 -0.00526891 10.83886719 0.00732422 C14.55180625 0.02339122 18.26365686 0.0074402 21.9765625 -0.01171875 C24.35937738 -0.00973614 26.74219158 -0.0058921 29.125 0 C30.22320068 -0.00607269 31.32140137 -0.01214539 32.45288086 -0.0184021 C42.67469591 0.07382525 51.76958129 1.79649413 59.33984375 9.1171875 C68.14099612 18.49515958 69.21528558 27.44163354 69.08398438 39.90893555 C69.06257306 42.32768371 69.08383532 44.74345255 69.109375 47.16210938 C69.13013502 58.36372818 68.00804526 68.05315771 59.79626465 76.45570374 C51.27058043 83.87060065 42.19820087 85.30113037 31.25 85.1953125 C29.90583672 85.19937023 28.56167777 85.20520649 27.2175293 85.21270752 C24.42030311 85.22147921 21.62423795 85.20894296 18.82714844 85.18066406 C15.27639816 85.14647723 11.72836998 85.16620136 8.17771912 85.20209885 C5.40796108 85.22398341 2.63882795 85.21678886 -0.13095093 85.20133209 C-2.06493947 85.19549381 -3.9989543 85.21342487 -5.93286133 85.2321167 C-16.3314075 85.06845202 -25.04200753 82.21573244 -32.4375 74.6484375 C-39.5781381 65.36107492 -40.07808794 56.03690528 -39.95898438 44.75756836 C-39.93750688 42.33671271 -39.95888034 39.9188134 -39.984375 37.49804688 C-39.99819667 29.44964088 -39.79605085 22.43124609 -35.4375 15.3984375 C-34.880625 14.3465625 -34.32375 13.2946875 -33.75 12.2109375 C-25.11225113 1.70556725 -12.879767 -0.07122093 0 0 Z " fill="#000101" transform="translate(443.4375,427.6015625)"/>
<path d="M0 0 C1.34416328 -0.00405773 2.68832223 -0.00989399 4.0324707 -0.01739502 C6.82969689 -0.02616671 9.62576205 -0.01363046 12.42285156 0.01464844 C15.97360184 0.04883527 19.52163002 0.02911114 23.07228088 -0.00678635 C25.84203892 -0.02867091 28.61117205 -0.02147636 31.38095093 -0.00601959 C33.31493947 -0.00018131 35.2489543 -0.01811237 37.18286133 -0.0368042 C47.5814075 0.12686048 56.29200753 2.97958006 63.6875 10.546875 C70.8281381 19.83423758 71.32808794 29.15840722 71.20898438 40.43774414 C71.18750688 42.85859979 71.20888034 45.2764991 71.234375 47.69726562 C71.24819667 55.74567162 71.04605085 62.76406641 66.6875 69.796875 C66.130625 70.84875 65.57375 71.900625 65 72.984375 C59.39157746 79.80542944 52.15151243 82.91097544 43.6875 84.796875 C39.53612427 85.20098217 35.41870239 85.21836407 31.25 85.1953125 C30.08927979 85.19818268 28.92855957 85.20105286 27.73266602 85.20401001 C25.29214995 85.20604063 22.85161723 85.20058141 20.41113281 85.18798828 C16.69819375 85.17192128 12.98634314 85.1878723 9.2734375 85.20703125 C6.89062262 85.20504864 4.50780842 85.2012046 2.125 85.1953125 C0.47769897 85.20442154 0.47769897 85.20442154 -1.20288086 85.2137146 C-12.19911083 85.11450002 -20.42202953 82.8253254 -28.875 75.609375 C-34.84325614 68.72292561 -37.46056306 62.02559593 -37.55078125 52.98046875 C-37.558853 52.20937271 -37.56692474 51.43827667 -37.57524109 50.64381409 C-37.58906944 49.00890337 -37.59979719 47.37396393 -37.60766602 45.73901367 C-37.61913587 44.08169991 -37.63950782 42.42442163 -37.66918945 40.76733398 C-37.87412502 29.31956427 -37.56629527 19.99227513 -30.3125 10.546875 C-21.73688513 1.77137064 -11.84280247 -0.11446448 0 0 Z " fill="#000000" transform="translate(239.3125,-0.796875)"/>
<path d="M0 0 C1.74532516 -0.00642769 1.74532516 -0.00642769 3.52590942 -0.01298523 C5.97836661 -0.01870831 8.43084077 -0.01924377 10.88330078 -0.01489258 C14.61390454 -0.01173475 18.34371295 -0.03521112 22.07421875 -0.06054688 C24.46614484 -0.06282044 26.85807305 -0.0635231 29.25 -0.0625 C30.35447479 -0.07170975 31.45894958 -0.08091949 32.59689331 -0.09040833 C43.60177272 -0.02540667 52.08993304 2.17269983 60.3828125 9.67578125 C66.74440916 16.70701967 69.06486935 23.00081553 69.09375 32.41015625 C69.1037352 33.56043304 69.1037352 33.56043304 69.11392212 34.73394775 C69.12400591 36.35092793 69.12874047 37.96794936 69.12841797 39.58496094 C69.13277549 42.03001398 69.16909405 44.47323623 69.20703125 46.91796875 C69.2849681 57.54471595 68.58510235 66.76585125 61.1953125 75.11328125 C60.61652344 75.80035156 60.03773437 76.48742187 59.44140625 77.1953125 C51.39645036 83.50714835 43.23557332 85.05774681 33.23046875 84.96484375 C31.50345985 84.9720192 31.50345985 84.9720192 29.74156189 84.9793396 C27.32891458 84.98271884 24.91622022 84.97365626 22.50366211 84.95263672 C18.80545233 84.9256729 15.1102303 84.9525432 11.41210938 84.984375 C9.05988914 84.98107392 6.70767076 84.97467395 4.35546875 84.96484375 C3.25131119 84.9749649 2.14715363 84.98508606 1.00953674 84.99551392 C-6.60574605 84.87845181 -6.60574605 84.87845181 -9.90454102 81.88427734 C-10.69311144 80.36125266 -11.47518717 78.8347819 -12.2421875 77.30078125 C-14.2837351 76.35366783 -14.2837351 76.35366783 -16.6796875 75.61328125 C-17.48277344 75.34128906 -18.28585938 75.06929688 -19.11328125 74.7890625 C-21.27983472 74.05466843 -21.27983472 74.05466843 -23.2421875 75.30078125 C-27.36634801 75.76766734 -29.47852107 75.83357178 -32.9296875 73.42578125 C-39.5913423 64.42354504 -39.87762953 55.45192102 -39.76367188 44.65991211 C-39.74219438 42.23905646 -39.76356784 39.82115715 -39.7890625 37.40039062 C-39.81076173 25.84792673 -38.21170512 17.70791951 -30.16015625 9.08984375 C-21.28645137 0.81253858 -11.67906264 -0.00960231 0 0 Z " fill="#010000" transform="translate(39.2421875,427.69921875)"/>
<path d="M0 0 C2.17585822 3.26378733 2.24605016 4.15904315 2.22705078 7.93041992 C2.22682419 9.43163643 2.22682419 9.43163643 2.22659302 10.96318054 C2.21627045 12.04138565 2.20594788 13.11959076 2.1953125 14.23046875 C2.1924826 15.33602615 2.18965271 16.44158356 2.18673706 17.5806427 C2.17553002 21.11637128 2.15042427 24.6518478 2.125 28.1875 C2.11497089 30.58267864 2.10584492 32.97786124 2.09765625 35.37304688 C2.07558897 41.24878411 2.04210618 47.12437405 2 53 C3.20483284 52.99000725 3.20483284 52.99000725 4.43400574 52.97981262 C12.0112443 52.91965003 19.58836672 52.87399956 27.16578197 52.84456348 C31.06122736 52.82892122 34.95647503 52.80770959 38.85180664 52.77368164 C42.61248525 52.74103632 46.37297394 52.72313615 50.13378334 52.71536827 C51.56709087 52.709834 53.00038826 52.69902679 54.43361473 52.68280983 C56.44416503 52.66096945 58.45490728 52.65977403 60.46557617 52.65942383 C61.60919113 52.65276199 62.75280609 52.64610016 63.93107605 52.63923645 C67.65627216 53.07714726 70.32910473 54.32910473 73 57 C73.58888104 64.1843487 73.58888104 64.1843487 71.48274612 67.10152817 C68.05087646 69.72576261 64.99677449 69.54341127 60.85028076 69.48101807 C60.02198549 69.48443577 59.19369021 69.48785347 58.34029508 69.49137473 C55.56082281 69.49797094 52.78231319 69.47594913 50.00292969 69.45410156 C48.01221744 69.45297346 46.02150352 69.45360622 44.03079224 69.45587158 C38.62196542 69.45702111 33.21349211 69.43347306 27.80474758 69.40557575 C22.15396851 69.38060189 16.5031817 69.37822327 10.85235596 69.37347412 C0.14970553 69.36103255 -10.55278181 69.32819487 -21.25536036 69.28807616 C-33.43899518 69.24339527 -45.6226377 69.22138067 -57.80633402 69.20129442 C-82.87097982 69.15946334 -107.93548078 69.08908825 -133 69 C-132.97381592 70.09989258 -132.94763184 71.19978516 -132.9206543 72.33300781 C-132.83008122 76.41792418 -132.77272567 80.50275203 -132.7253418 84.58837891 C-132.70021359 86.35578338 -132.66610484 88.1230841 -132.62280273 89.89013672 C-132.56207265 92.43222649 -132.53377485 94.97294165 -132.51171875 97.515625 C-132.48591232 98.30430969 -132.4601059 99.09299438 -132.43351746 99.90557861 C-132.4315271 103.80806617 -132.63656008 105.60024305 -135.30395508 108.53417969 C-138.97716645 110.5312784 -141.02891221 110.10307994 -145 109 C-147.58455285 107.10466125 -147.96275506 106.11173483 -149 103 C-149.0955584 101.59958902 -149.13805429 100.19515285 -149.14526367 98.79150391 C-149.15164352 97.94697662 -149.15802338 97.10244934 -149.16459656 96.23233032 C-149.16570938 95.32292694 -149.1668222 94.41352356 -149.16796875 93.4765625 C-149.17129715 92.53823578 -149.17462555 91.59990906 -149.17805481 90.63314819 C-149.18311812 88.64768972 -149.18546332 86.66222274 -149.18530273 84.67675781 C-149.18748651 81.64373694 -149.20564108 78.61108138 -149.22460938 75.578125 C-149.22754398 73.64843874 -149.22952833 71.71875076 -149.23046875 69.7890625 C-149.23765427 68.88370758 -149.24483978 67.97835266 -149.25224304 67.04556274 C-149.22177594 58.61998902 -149.22177594 58.61998902 -147 55 C-143.83543229 52.98103349 -141.33401715 52.75226845 -137.62164307 52.75949097 C-136.53071854 52.75674164 -135.43979401 52.75399231 -134.31581116 52.75115967 C-132.52801491 52.7619455 -132.52801491 52.7619455 -130.70410156 52.77294922 C-128.8159095 52.77251114 -128.8159095 52.77251114 -126.88957214 52.77206421 C-123.44151468 52.77149053 -119.99359644 52.78324724 -116.54557133 52.79721212 C-112.94076812 52.80971696 -109.33596169 52.81088979 -105.73114014 52.81326294 C-98.90658568 52.81947843 -92.08209531 52.83589018 -85.25756907 52.85596192 C-77.48737925 52.87831876 -69.71718636 52.88931381 -61.94697237 52.89935279 C-45.96461113 52.92025636 -29.98231383 52.95543368 -14 53 C-14.00888245 52.38247864 -14.01776489 51.76495728 -14.0269165 51.12872314 C-14.11536919 44.70505016 -14.17572569 38.28154998 -14.21972656 31.85742188 C-14.23984936 29.45956394 -14.26715059 27.06175512 -14.30175781 24.6640625 C-14.3502449 21.21862677 -14.37296241 17.77383948 -14.390625 14.328125 C-14.41127014 13.25508118 -14.43191528 12.18203735 -14.45318604 11.07647705 C-14.45348816 10.07574158 -14.45379028 9.0750061 -14.45410156 8.04394531 C-14.46298401 7.16458313 -14.47186646 6.28522095 -14.48101807 5.37921143 C-13.83678708 2.1927163 -12.49403529 1.01828264 -10 -1 C-6.00471255 -2.33176248 -3.90144863 -1.41870859 0 0 Z " fill="#000000" transform="translate(262,96)"/>
<path d="M0 0 C2.84780619 2.23206431 3.84997666 3.54992999 5 7 C5.08705429 8.58033192 5.11767952 10.16410378 5.11352539 11.74682617 C5.11341209 13.18798042 5.11341209 13.18798042 5.11329651 14.6582489 C5.10813522 15.69270645 5.10297394 16.727164 5.09765625 17.79296875 C5.0962413 18.85413406 5.09482635 19.91529938 5.09336853 21.00862122 C5.08776606 24.40160935 5.07521314 27.79453177 5.0625 31.1875 C5.05748532 33.48632717 5.05292236 35.78515538 5.04882812 38.08398438 C5.03779583 43.72267872 5.0210553 49.36133466 5 55 C6.17057953 54.98334541 6.17057953 54.98334541 7.36480713 54.96635437 C14.72157739 54.86614185 22.07801646 54.79003069 29.43529129 54.74093914 C33.21773661 54.71485183 36.99961771 54.67947175 40.78173828 54.62280273 C44.43222338 54.56844878 48.08216606 54.53857294 51.7330246 54.52561378 C53.12534882 54.51637967 54.51764355 54.4983468 55.90973663 54.47134972 C57.86042797 54.43502647 59.81166591 54.43295736 61.76269531 54.43237305 C63.42815399 54.41571846 63.42815399 54.41571846 65.1272583 54.39872742 C68 55 68 55 70.35748291 57.24104309 C72.047219 60.07931435 72.50451025 61.46282559 72.51757812 64.7109375 C72.53649109 66.06759521 72.53649109 66.06759521 72.55578613 67.45166016 C72.54768921 68.4163623 72.53959229 69.38106445 72.53125 70.375 C72.5350769 71.37708496 72.53890381 72.37916992 72.54284668 73.41162109 C72.54556382 75.52637743 72.53821657 77.64116749 72.52148438 79.75585938 C72.50007255 82.98904494 72.52129343 86.22000838 72.546875 89.453125 C72.54423169 91.51042156 72.53910665 93.56771674 72.53125 95.625 C72.53934692 96.58970215 72.54744385 97.5544043 72.55578613 98.54833984 C72.49526146 102.88987297 72.40355262 105.34247152 70.09179688 109.10913086 C67.83281724 111.15112401 66.99633196 111.66198758 64 111.5625 C63.34 111.56378906 62.68 111.56507813 62 111.56640625 C60 111 60 111 56 107 C56 95.12 56 83.24 56 71 C16.73 71 -22.54 71 -63 71 C-63 82.88 -63 94.76 -63 107 C-67 111 -67 111 -69.03515625 111.49609375 C-74.50086256 111.33812536 -74.50086256 111.33812536 -76.9375 109.6875 C-78.81192151 106.71047759 -79.13036738 104.12369981 -79.16113281 100.69970703 C-79.17074036 99.835159 -79.1803479 98.97061096 -79.19024658 98.0798645 C-79.19449646 97.14858734 -79.19874634 96.21731018 -79.203125 95.2578125 C-79.20882507 94.29728973 -79.21452515 93.33676697 -79.22039795 92.34713745 C-79.22984458 90.31460674 -79.23638059 88.28206073 -79.24023438 86.24951172 C-79.24994082 83.14393343 -79.28096786 80.03901674 -79.3125 76.93359375 C-79.31903017 74.95833726 -79.32428059 72.98307604 -79.328125 71.0078125 C-79.3404718 70.0805838 -79.3528186 69.1533551 -79.36553955 68.19802856 C-79.34877019 63.33193117 -79.24320792 59.91533956 -76 56 C-73.25334611 54.62667306 -71.06375932 54.88035108 -67.98974609 54.88647461 C-66.72858978 54.88655014 -65.46743347 54.88662567 -64.1680603 54.88670349 C-62.78651897 54.89181051 -61.40497804 54.89702651 -60.0234375 54.90234375 C-58.6138209 54.90420856 -57.20420366 54.90563217 -55.79458618 54.90663147 C-52.08246068 54.91045167 -48.37037422 54.92027772 -44.65826416 54.93133545 C-40.87113981 54.94156025 -37.08400917 54.94613138 -33.296875 54.95117188 C-25.86456552 54.96190042 -18.43228823 54.97897089 -11 55 C-11.01110306 54.36995056 -11.02220612 53.73990112 -11.03364563 53.09075928 C-11.14420251 46.53737555 -11.21965216 39.98425636 -11.2746582 33.43017578 C-11.29981355 30.98377728 -11.33394166 28.53745401 -11.37719727 26.09130859 C-11.43780071 22.57630869 -11.46620021 19.06230171 -11.48828125 15.546875 C-11.51408768 14.4519574 -11.5398941 13.35703979 -11.56648254 12.22894287 C-11.5692848 4.65478744 -11.5692848 4.65478744 -8.66088867 1.30957031 C-5.41658602 -0.28713025 -3.56945303 -0.60756647 0 0 Z " fill="#000000" transform="translate(394,307)"/>
<path d="M0 0 C2.66479492 1.30175781 2.66479492 1.30175781 5 4 C5.71597804 7.84703118 5.58022294 11.64596383 5.48828125 15.546875 C5.48120651 16.6732135 5.47413177 17.799552 5.46684265 18.96002197 C5.43885492 22.557357 5.37610397 26.15313544 5.3125 29.75 C5.28742299 32.18877961 5.26460879 34.62758361 5.24414062 37.06640625 C5.18901378 43.0448019 5.10534231 49.02228975 5 55 C6.17057953 54.99000725 6.17057953 54.99000725 7.36480713 54.97981262 C14.72161438 54.91968481 22.07830238 54.87401727 29.43529129 54.84456348 C33.21754698 54.82891188 36.99959951 54.80768321 40.78173828 54.77368164 C44.43218735 54.74106959 48.08244109 54.72314318 51.7330246 54.71536827 C53.12529322 54.70982802 54.51755123 54.69900916 55.90973663 54.68280983 C57.86061668 54.66101377 59.81169354 54.65977441 61.76269531 54.65942383 C62.8730011 54.65276199 63.98330688 54.64610016 65.1272583 54.63923645 C68.3603648 55.04525519 69.7081587 55.71700242 72 58 C72.92032064 60.76096192 73.13551779 62.4495067 73.16113281 65.30029297 C73.17074036 66.164841 73.1803479 67.02938904 73.19024658 67.9201355 C73.1966214 69.31705124 73.1966214 69.31705124 73.203125 70.7421875 C73.20882507 71.70271027 73.21452515 72.66323303 73.22039795 73.65286255 C73.22984458 75.68539326 73.23638059 77.71793927 73.24023438 79.75048828 C73.24994082 82.85606657 73.28096786 85.96098326 73.3125 89.06640625 C73.31903017 91.04166274 73.32428059 93.01692396 73.328125 94.9921875 C73.3404718 95.9194162 73.3528186 96.8466449 73.36553955 97.80197144 C73.34700841 103.17929941 73.00059423 106.99940577 69 111 C63.30736301 111.46660959 63.30736301 111.46660959 61 111 C59.68 109.68 58.36 108.36 57 107 C57 95.12 57 83.24 57 71 C17.73 71 -21.54 71 -62 71 C-62 82.88 -62 94.76 -62 107 C-66 111 -66 111 -68 111.56640625 C-68.66 111.56511719 -69.32 111.56382812 -70 111.5625 C-70.99 111.59537109 -70.99 111.59537109 -72 111.62890625 C-75.28759629 110.59511132 -76.20672172 108.92187805 -78 106 C-78.59402592 102.54198576 -78.56064185 99.12687135 -78.53125 95.625 C-78.5350769 94.62291504 -78.53890381 93.62083008 -78.54284668 92.58837891 C-78.54556382 90.47362257 -78.53821657 88.35883251 -78.52148438 86.24414062 C-78.50007255 83.01095506 -78.52129343 79.77999162 -78.546875 76.546875 C-78.54423169 74.48957844 -78.53910665 72.43228326 -78.53125 70.375 C-78.53934692 69.41029785 -78.54744385 68.4455957 -78.55578613 67.45166016 C-78.54317749 66.54722168 -78.53056885 65.6427832 -78.51757812 64.7109375 C-78.51439575 63.91993652 -78.51121338 63.12893555 -78.50793457 62.31396484 C-77.77596976 58.97939983 -76.4630872 57.34143141 -74 55 C-71.1272583 54.39872742 -71.1272583 54.39872742 -67.76269531 54.43237305 C-65.87118744 54.43293953 -65.87118744 54.43293953 -63.94146729 54.43351746 C-62.57034311 54.45904876 -61.19922905 54.48512871 -59.828125 54.51171875 C-58.42137916 54.52104851 -57.01461704 54.52816386 -55.60784912 54.53315735 C-51.91175189 54.5522151 -48.21664282 54.60130299 -44.52093506 54.65667725 C-40.7471656 54.70789754 -36.97323589 54.73067718 -33.19921875 54.75585938 C-25.79902949 54.80942494 -18.39965339 54.89472038 -11 55 C-11.00444122 54.4097554 -11.00888245 53.8195108 -11.01345825 53.21138 C-11.05773557 47.06322655 -11.08788476 40.91511847 -11.10986328 34.7668457 C-11.11991528 32.47288167 -11.1335589 30.17893043 -11.15087891 27.88500977 C-11.17516209 24.58606812 -11.18649123 21.28729603 -11.1953125 17.98828125 C-11.20563507 16.96414627 -11.21595764 15.94001129 -11.22659302 14.88484192 C-11.22674408 13.92422348 -11.22689514 12.96360504 -11.22705078 11.97387695 C-11.231492 11.13226517 -11.23593323 10.29065338 -11.24050903 9.42353821 C-10.96024455 6.59939608 -10.28269913 4.52988357 -9 2 C-5.48746854 -0.34168764 -4.13530644 -0.49623677 0 0 Z " fill="#000000" transform="translate(124,307)"/>
<path d="M0 0 C1.08162415 -0.00960754 2.16324829 -0.01921509 3.27764893 -0.02911377 C5.03851837 -0.03548859 5.03851837 -0.03548859 6.83496094 -0.04199219 C8.03868347 -0.04769226 9.24240601 -0.05339233 10.48260498 -0.05926514 C13.03478107 -0.06872636 15.58696943 -0.07525356 18.13916016 -0.07910156 C22.03928056 -0.08879251 25.93887089 -0.11980025 29.83886719 -0.15136719 C32.31672864 -0.15789853 34.79459386 -0.16314848 37.27246094 -0.16699219 C39.021185 -0.18551239 39.021185 -0.18551239 40.80523682 -0.20440674 C47.37323153 -0.18639302 52.38277036 0.02659319 57.46386719 4.66113281 C62.45687402 11.0735563 62.09800875 16.44955045 62.16943359 24.33813477 C62.19403625 26.32443773 62.25063204 28.31026065 62.30761719 30.29589844 C62.36742948 36.83869846 62.3091385 42.01924074 58.58349609 47.54125977 C52.3071199 53.30430378 46.96363023 53.7320244 38.74121094 53.66503906 C37.69282043 53.6744603 36.64442993 53.68388153 35.56427002 53.69358826 C32.23242397 53.72215696 28.90129442 53.72531805 25.56933594 53.72363281 C22.22320072 53.72723649 18.87758178 53.73669324 15.53155518 53.76438904 C13.45378192 53.78122605 11.37583771 53.78401534 9.29803467 53.77137756 C7.89077118 53.78170265 7.89077118 53.78170265 6.45507812 53.79223633 C5.63013855 53.79127457 4.80519897 53.79031281 3.95526123 53.7893219 C1.307361 54.25025478 0.47180034 55.08518761 -1.18066406 57.16113281 C-2.35641117 59.26102933 -2.35641117 59.26102933 -3.18066406 61.16113281 C-4.66266308 60.7120422 -6.14121642 60.25156717 -7.61816406 59.78613281 C-8.85373047 59.40328125 -8.85373047 59.40328125 -10.11425781 59.01269531 C-12.18066406 58.16113281 -12.18066406 58.16113281 -13.18066406 56.16113281 C-12.97441406 54.90300781 -12.76816406 53.64488281 -12.55566406 52.34863281 C-11.96850685 48.28256914 -12.79650283 46.55397764 -15.18066406 43.16113281 C-16.69247332 37.30137775 -16.44334546 31.29757765 -16.49316406 25.28613281 C-16.52216797 24.12726563 -16.55117188 22.96839844 -16.58105469 21.77441406 C-16.63147711 14.98678072 -16.32885708 10.63160958 -12.18066406 5.16113281 C-7.98486915 1.36493741 -5.59492724 0.04002195 0 0 Z " fill="#ECCC49" transform="translate(31.1806640625,443.8388671875)"/>
<path d="M0 0 C1.1697084 -0.00619858 2.33941681 -0.01239716 3.54457092 -0.01878357 C6.01139496 -0.02586851 8.47826695 -0.02273105 10.94506836 -0.01000977 C14.70711801 0.00384901 18.46667597 -0.03023179 22.22851562 -0.06835938 C24.63151102 -0.06931072 27.03450951 -0.06745095 29.4375 -0.0625 C30.55543442 -0.07575821 31.67336884 -0.08901642 32.82518005 -0.10267639 C39.72542487 -0.02092982 44.49823047 0.9614003 49.78515625 5.56640625 C55.14147552 11.89042821 54.41551223 19.02484149 54.34765625 27.00390625 C54.38342773 28.93073242 54.38342773 28.93073242 54.41992188 30.89648438 C54.40834131 38.38910944 53.91119761 43.8573497 48.78515625 49.56640625 C44.94807398 53.06492244 41.58312362 53.69076962 36.4909668 53.7434082 C34.86864388 53.76266106 34.86864388 53.76266106 33.21354675 53.78230286 C32.04479507 53.78968979 30.8760434 53.79707672 29.671875 53.8046875 C27.86841362 53.81679512 27.86841362 53.81679512 26.02851868 53.82914734 C23.48232464 53.84298597 20.93611208 53.85370911 18.38989258 53.86157227 C14.49850302 53.87879188 10.60796143 53.92268272 6.71679688 53.96679688 C4.24349583 53.97692322 1.77018757 53.9854395 -0.703125 53.9921875 C-1.86580399 54.00969559 -3.02848297 54.02720367 -4.22639465 54.04524231 C-11.82269938 54.02487256 -15.42140752 53.2983877 -20.87255859 47.93554688 C-25.334313 41.4490842 -24.95524898 34.7062326 -24.83984375 27.06640625 C-24.85917969 25.78636719 -24.87851563 24.50632812 -24.8984375 23.1875 C-24.86510951 16.74186721 -24.60066535 11.63751354 -20.97021484 6.19726562 C-14.43972957 0.12999976 -8.59739171 -0.03807457 0 0 Z " fill="#F86746" transform="translate(241.21484375,14.43359375)"/>
<path d="M0 0 C1.08162415 -0.00960754 2.16324829 -0.01921509 3.27764893 -0.02911377 C5.03851837 -0.03548859 5.03851837 -0.03548859 6.83496094 -0.04199219 C8.03868347 -0.04769226 9.24240601 -0.05339233 10.48260498 -0.05926514 C13.03478107 -0.06872636 15.58696943 -0.07525356 18.13916016 -0.07910156 C22.03928056 -0.08879251 25.93887089 -0.11980025 29.83886719 -0.15136719 C32.31672864 -0.15789853 34.79459386 -0.16314848 37.27246094 -0.16699219 C39.021185 -0.18551239 39.021185 -0.18551239 40.80523682 -0.20440674 C48.47062505 -0.18338325 52.9486225 0.41251429 58.6550293 5.8762207 C61.25177772 9.81747846 61.45084341 12.03261401 61.44824219 16.71972656 C61.45065414 17.42710464 61.4530661 18.13448273 61.45555115 18.86329651 C61.45457656 20.35171136 61.44127568 21.84016421 61.41625977 23.32836914 C61.38197214 25.58965032 61.39561006 27.84701053 61.41503906 30.10839844 C61.40813832 31.5621909 61.39846386 33.01597338 61.38574219 34.46972656 C61.37486572 35.7773999 61.36398926 37.08507324 61.3527832 38.43237305 C60.49339911 44.43940884 58.5583659 47.76243129 53.83276367 51.56323242 C48.72615751 54.10219372 43.18495596 53.75225281 37.60449219 53.72753906 C35.84992958 53.73683693 35.84992958 53.73683693 34.05992126 53.74632263 C31.59309723 53.75340757 29.12622524 53.75027011 26.65942383 53.73754883 C22.89737418 53.72369005 19.13781622 53.75777085 15.37597656 53.79589844 C12.97298117 53.79684978 10.56998267 53.79499002 8.16699219 53.79003906 C6.49009056 53.80992638 6.49009056 53.80992638 4.77931213 53.83021545 C-2.12192749 53.7484571 -6.89222265 52.76503465 -12.18066406 48.16113281 C-17.56427553 41.82346362 -16.77635686 34.65945611 -16.68066406 26.66113281 C-16.69613281 25.36820312 -16.71160156 24.07527344 -16.72753906 22.74316406 C-16.69865219 15.71643346 -16.55937234 10.7909006 -12.18066406 5.16113281 C-7.98486915 1.36493741 -5.59492724 0.04002195 0 0 Z " fill="#5FBCC6" transform="translate(435.1806640625,443.8388671875)"/>
<path d="M0 0 C1.79709412 -0.00218285 1.79709412 -0.00218285 3.63049316 -0.00440979 C6.15879757 -0.00275277 8.68711227 0.00878625 11.21533203 0.02954102 C15.08018951 0.05849217 18.94367446 0.05014493 22.80859375 0.03710938 C25.26823582 0.04334719 27.72787356 0.05173846 30.1875 0.0625 C31.34076782 0.05956436 32.49403564 0.05662872 33.68225098 0.05360413 C40.18364747 0.12986711 45.25392128 0.3783914 50.23828125 5.03125 C55.19620118 11.51468376 54.84263558 16.01098187 54.88891602 24.07983398 C54.9003991 25.47349226 54.92079285 26.86710782 54.95043945 28.26049805 C55.26653257 43.11687475 55.26653257 43.11687475 50.59375 48.49609375 C44.29000794 53.96411875 38.29470094 54.2206016 30.2109375 54.125 C28.45138229 54.12861794 28.45138229 54.12861794 26.65628052 54.13230896 C24.18699752 54.1313331 21.71769194 54.11800252 19.24853516 54.09301758 C15.47352788 54.05863726 11.70085407 54.07239344 7.92578125 54.09179688 C5.5208234 54.08489994 3.11587156 54.07522895 0.7109375 54.0625 C-0.41418243 54.06745987 -1.53930237 54.07241974 -2.69851685 54.07752991 C-8.90654182 53.98432922 -12.7015987 53.68351247 -17.40625 49.49609375 C-23.26918104 42.99933233 -22.65526532 36.65338541 -22.70141602 28.35473633 C-22.71292992 26.91257918 -22.73337291 25.47046446 -22.76293945 24.02856445 C-22.80578925 21.93802114 -22.82180746 19.84874141 -22.83203125 17.7578125 C-22.84661377 16.50959717 -22.86119629 15.26138184 -22.8762207 13.9753418 C-22.15194704 8.61345924 -19.78784382 5.80476406 -15.93164062 2.15209961 C-10.66419501 -0.32221366 -5.7503159 -0.05601381 0 0 Z " fill="#5FBCC6" transform="translate(307.40625,443.50390625)"/>
<path d="M0 0 C1.64762581 -0.02409439 1.64762581 -0.02409439 3.32853699 -0.04867554 C8.36420113 -0.09311043 13.39973245 -0.13420499 18.43554688 -0.15722656 C21.09025853 -0.17377289 23.74492588 -0.20104494 26.39941406 -0.23925781 C30.2265536 -0.29407765 34.05264741 -0.31591165 37.88012695 -0.33056641 C39.06265549 -0.35323578 40.24518402 -0.37590515 41.46354675 -0.39926147 C47.42011678 -0.38402473 51.82849701 -0.23623711 56.43937683 3.79353333 C60.47629143 8.12548974 61.12573918 11.37603459 61.1418457 17.25146484 C61.14471588 17.91823746 61.14758606 18.58501007 61.15054321 19.27198792 C61.15257636 20.67636977 61.14709899 22.08078042 61.13452148 23.48510742 C61.11848032 25.62076995 61.13438018 27.75453315 61.15356445 29.89013672 C61.15158139 31.26058356 61.1477364 32.63102923 61.1418457 34.00146484 C61.13846191 35.23695068 61.13507813 36.47243652 61.1315918 37.74536133 C60.63493732 42.15621533 59.24942921 45.54173869 56.2434082 48.83740234 C51.91388845 52.20856486 49.06582897 53.31151277 43.64868164 53.36987305 C42.61040222 53.38270828 41.5721228 53.39554352 40.50238037 53.4087677 C39.38051331 53.41615463 38.25864624 53.42354156 37.1027832 53.43115234 C35.36946747 53.44325996 35.36946747 53.44325996 33.60113525 53.45561218 C31.15329488 53.46945071 28.70543522 53.48017389 26.25756836 53.48803711 C22.5220055 53.5052394 18.78732999 53.54912814 15.05200195 53.59326172 C12.67310221 53.60338968 10.29419494 53.61190546 7.9152832 53.61865234 C6.24462799 53.64491447 6.24462799 53.64491447 4.54022217 53.67170715 C-1.97133659 53.65357962 -5.97364684 53.09612236 -11.2565918 49.19287109 C-17.15378879 42.83010592 -16.50397658 36.78391778 -16.55175781 28.47875977 C-16.56327029 27.08510174 -16.58371109 25.69148755 -16.61328125 24.2980957 C-16.65614993 22.27704121 -16.67215159 20.25729365 -16.68237305 18.23583984 C-16.69695557 17.02951904 -16.71153809 15.82319824 -16.7265625 14.58032227 C-16.00206427 9.35828959 -13.51866936 6.30470133 -9.6315918 2.88037109 C-6.1216387 0.38645705 -4.27174485 0.05667757 0 0 Z " fill="#EDCD49" transform="translate(166.256591796875,443.80712890625)"/>
<path d="M0 0 C1.24149811 -0.0038269 2.48299622 -0.00765381 3.76211548 -0.01159668 C7.05749619 -0.01501247 10.35211972 0.00105258 13.6473999 0.0234375 C15.65938511 0.03123188 17.6706706 0.02347941 19.68261719 0.00976562 C23.55957182 -0.01500725 27.43550166 -0.01193241 31.3125 0 C33.10498672 -0.01214539 33.10498672 -0.01214539 34.9336853 -0.02453613 C41.59922651 0.05020131 45.90927275 0.47084802 51.2890625 4.53125 C56.33750808 10.44983417 55.93754571 16.8993919 55.86547852 24.43725586 C55.85161012 26.46179801 55.88573856 28.48170617 55.92382812 30.50585938 C55.91391535 37.15072384 55.7536885 42.43080499 51.94897461 48.01782227 C45.91225565 53.52181121 39.20552767 53.01355448 31.48046875 53.03515625 C30.24038559 53.04514145 29.00030243 53.05512665 27.72264099 53.06541443 C25.10443451 53.08057797 22.48617027 53.08764077 19.86791992 53.0871582 C17.19152227 53.08691389 14.51665928 53.10781607 11.84057617 53.14868164 C7.97006353 53.20369908 4.10133358 53.2183686 0.23046875 53.22265625 C-0.96138535 53.2442128 -2.15323944 53.26576935 -3.38121033 53.28797913 C-8.68039035 53.24435889 -12.65409181 53.20736806 -16.89477539 49.80053711 C-22.85319898 43.57017042 -22.08340852 36.36253539 -22.08154297 28.23901367 C-22.08591815 26.10319361 -22.12228223 23.96943974 -22.16015625 21.83398438 C-22.16602527 20.46354867 -22.16999409 19.09310323 -22.171875 17.72265625 C-22.18009277 16.48717041 -22.18831055 15.25168457 -22.19677734 13.97875977 C-21.47319071 8.84420357 -18.99878128 6.07344695 -15.75537109 2.18945312 C-10.75200403 -0.53571681 -5.60212674 -0.03783027 0 0 Z " fill="#EECE49" transform="translate(104.7109375,229.46875)"/>
<path d="M0 0 C1.65212746 -0.01418472 1.65212746 -0.01418472 3.33763123 -0.02865601 C4.51793411 -0.02258331 5.698237 -0.01651062 6.91430664 -0.01025391 C8.74681725 -0.01455917 8.74681725 -0.01455917 10.61634827 -0.01895142 C13.19768742 -0.02099121 15.77904205 -0.01546734 18.36035156 -0.00292969 C22.30642379 0.01311027 26.25146958 -0.0027753 30.19750977 -0.02197266 C32.70727765 -0.01998994 35.21704489 -0.01614568 37.72680664 -0.01025391 C38.9050853 -0.0163266 40.08336395 -0.02239929 41.29734802 -0.02865601 C51.59672781 0.05951935 51.59672781 0.05951935 56.38696289 3.38818359 C62.15399702 9.77868087 61.6049495 15.23911333 61.62719727 23.45410156 C61.63686424 25.6161198 61.66786783 27.77717136 61.69946289 29.93896484 C61.70599719 31.3230738 61.71124598 32.70718954 61.71508789 34.09130859 C61.72443359 35.34588867 61.7337793 36.60046875 61.7434082 37.89306641 C61.22357632 42.99026724 59.63668444 46.23219116 55.88696289 49.70068359 C52.18226004 52.20135802 49.38289468 52.52299287 45.0168457 52.58105469 C43.91850403 52.59711761 42.82016235 52.61318054 41.6885376 52.62973022 C36.6654933 52.67424641 31.64258025 52.71524478 26.61938477 52.73828125 C23.97150889 52.75483859 21.32367766 52.78212521 18.67602539 52.8203125 C14.85547732 52.87512326 11.03597638 52.89696327 7.21508789 52.91162109 C6.03569641 52.93429047 4.85630493 52.95695984 3.64117432 52.98031616 C-2.25330417 52.96519444 -6.73092314 52.83833841 -11.30804443 48.85467529 C-16.66192891 42.83822226 -16.13968336 36.17968175 -16.11401367 28.55761719 C-16.11304248 26.5244315 -16.15469049 24.49504322 -16.19897461 22.46240234 C-16.21226855 15.75560779 -16.10833652 10.49124797 -12.17749023 4.89941406 C-8.44209884 1.29110059 -5.15140598 0.01273285 0 0 Z " fill="#5FBDC7" transform="translate(367.613037109375,229.61181640625)"/>
<path d="M0 0 C0.82773422 -0.00637985 1.65546844 -0.0127597 2.50828552 -0.01933289 C3.39895218 -0.02044571 4.28961884 -0.02155853 5.20727539 -0.02270508 C6.58502892 -0.02769768 6.58502892 -0.02769768 7.99061584 -0.03279114 C9.93319193 -0.03785361 11.8757767 -0.04019967 13.81835938 -0.04003906 C16.78994062 -0.0422253 19.76115047 -0.06038749 22.73266602 -0.0793457 C24.62003454 -0.0822798 26.50740482 -0.08426449 28.39477539 -0.08520508 C29.72773903 -0.09598335 29.72773903 -0.09598335 31.08763123 -0.10697937 C31.91851761 -0.10390274 32.74940399 -0.10082611 33.60546875 -0.09765625 C34.33366318 -0.09908127 35.0618576 -0.10050629 35.81211853 -0.10197449 C38.21939998 0.18760272 39.80667859 0.88094313 41.86743164 2.14526367 C44.62243663 6.65186724 44.156071 11.7529928 44.13305664 16.86401367 C44.13592682 18.26725891 44.13592682 18.26725891 44.13885498 19.69885254 C44.14021307 21.67236603 44.13654292 23.64588856 44.12817383 25.61938477 C44.11746905 28.63472622 44.12808193 31.64947193 44.14086914 34.66479492 C44.13954748 36.58536915 44.13698495 38.50594301 44.13305664 40.42651367 C44.1371051 41.32559448 44.14115356 42.22467529 44.14532471 43.15100098 C44.11244771 47.55441783 44.04522717 51.1881213 41.86743164 55.14526367 C39.20769594 57.31245573 37.77905568 57.14061231 34.30493164 56.95776367 C29.66058013 55.86000786 29.66058013 55.86000786 27.86743164 53.14526367 C27.60579996 50.2744421 27.5185453 47.62539874 27.57446289 44.75854492 C27.57870773 43.9415361 27.58295258 43.12452728 27.58732605 42.28276062 C27.60411473 39.67409261 27.64176646 37.06619805 27.67993164 34.45776367 C27.69497827 32.68889462 27.70866672 30.92001346 27.72094727 29.15112305 C27.75401878 24.81553871 27.80580174 20.48053231 27.86743164 16.14526367 C26.85841797 16.16621094 25.8494043 16.1871582 24.80981445 16.20874023 C21.06028477 16.28123152 17.31081682 16.32709587 13.56079102 16.36499023 C11.93894021 16.38508511 10.31716167 16.41236622 8.69555664 16.44702148 C6.36204184 16.49563638 4.02948607 16.51825256 1.69555664 16.53588867 C0.61096161 16.56685638 0.61096161 16.56685638 -0.49554443 16.59844971 C-3.91845801 16.59996961 -5.80085906 16.38855225 -8.59448242 14.33959961 C-10.82718152 11.15428223 -10.60730851 8.94318489 -10.13256836 5.14526367 C-7.67352891 0.69557323 -4.86659763 0.0255025 0 0 Z " fill="#000000" transform="translate(355.132568359375,148.854736328125)"/>
</svg>
