<?xml version="1.0" standalone="no"?>
<!DOCTYPE svg PUBLIC "-//W3C//DTD SVG 20010904//EN"
 "http://www.w3.org/TR/2001/REC-SVG-20010904/DTD/svg10.dtd">
<svg version="1.0" xmlns="http://www.w3.org/2000/svg"
 width="512.000000pt" height="512.000000pt" viewBox="0 0 512.000000 512.000000"
 preserveAspectRatio="xMidYMid meet">

<g transform="translate(0.000000,512.000000) scale(0.100000,-0.100000)"
fill="#000000" stroke="none">
<path d="M2405 4949 c-260 -36 -495 -152 -691 -341 -58 -56 -73 -66 -83 -55
-20 25 -125 66 -199 79 -91 15 -189 1 -280 -42 -77 -36 -178 -133 -216 -208
-31 -60 -56 -159 -56 -220 0 -42 -1 -43 -56 -67 -114 -50 -238 -157 -304 -261
-37 -58 -38 -97 -5 -129 47 -48 88 -28 170 83 57 78 163 151 271 186 89 29 89
29 89 158 1 103 3 118 28 165 59 114 160 177 282 178 87 0 149 -23 221 -81 84
-69 100 -65 208 52 111 119 193 182 321 245 294 144 628 142 920 -3 112 -56
207 -130 311 -242 108 -117 124 -121 208 -52 72 58 134 81 221 81 125 -1 230
-69 284 -184 23 -50 26 -68 26 -163 0 -64 4 -111 11 -118 6 -6 45 -24 87 -39
98 -37 153 -70 211 -125 207 -202 231 -517 57 -749 -82 -109 -217 -187 -363
-212 -41 -6 -78 -44 -78 -80 0 -12 10 -35 22 -50 20 -26 25 -27 82 -22 127 10
275 81 386 183 244 227 299 598 129 886 -74 126 -204 242 -332 297 -46 20 -47
21 -48 68 -3 283 -275 512 -551 465 -74 -13 -179 -54 -199 -78 -9 -11 -27 1
-95 65 -174 165 -372 269 -599 316 -98 20 -295 27 -390 14z"/>
<path d="M2340 4154 c-569 -50 -974 -232 -1045 -468 -23 -75 -22 -2007 0
-2083 34 -115 133 -212 300 -293 213 -104 438 -156 808 -186 l77 -6 0 -79 0
-79 -895 -2 -894 -3 -23 -23 c-21 -21 -23 -33 -26 -157 l-4 -135 -163 0 c-175
0 -206 -6 -224 -47 -15 -32 -15 -354 0 -386 6 -14 22 -30 36 -36 34 -15 832
-15 866 0 14 6 30 22 36 36 15 32 15 354 0 386 -18 41 -49 47 -224 47 l-165 0
0 80 0 80 840 0 840 0 0 -80 0 -80 -165 0 c-175 0 -206 -6 -224 -47 -15 -32
-15 -354 0 -386 6 -14 22 -30 36 -36 34 -15 832 -15 866 0 41 19 47 49 47 229
0 103 -4 179 -11 193 -18 41 -49 47 -224 47 l-165 0 0 80 0 80 840 0 840 0 0
-80 0 -80 -165 0 c-175 0 -206 -6 -224 -47 -7 -14 -11 -90 -11 -193 0 -180 6
-210 47 -229 34 -15 832 -15 866 0 14 6 30 22 36 36 15 32 15 354 0 386 -18
41 -49 47 -224 47 l-163 0 -4 135 c-3 124 -5 136 -26 157 l-23 23 -894 3 -895
2 0 79 0 79 78 6 c173 14 283 28 398 51 314 63 564 187 661 328 66 97 63 48
63 1143 0 1105 4 1044 -69 1140 -123 163 -406 286 -796 345 -125 19 -517 33
-635 23z m465 -164 c318 -30 581 -105 742 -213 176 -118 176 -236 0 -354 -292
-196 -906 -275 -1437 -187 -384 64 -670 220 -670 364 0 171 382 344 860 389
125 12 379 12 505 1z m-1181 -776 c546 -258 1581 -219 2013 78 l43 29 0 -199
0 -198 -29 -46 c-56 -89 -259 -195 -471 -247 -396 -97 -873 -95 -1259 5 -207
54 -397 156 -452 243 l-29 45 0 198 0 199 46 -31 c25 -18 87 -52 138 -76z m0
-640 c546 -258 1581 -219 2013 78 l43 29 0 -199 0 -198 -29 -46 c-56 -89 -259
-195 -471 -247 -396 -97 -873 -95 -1259 5 -207 54 -397 156 -452 243 l-29 45
0 198 0 199 46 -31 c25 -18 87 -52 138 -76z m0 -640 c546 -258 1581 -219 2013
78 l43 29 0 -199 0 -198 -29 -46 c-56 -89 -259 -195 -471 -247 -396 -97 -873
-95 -1259 5 -207 54 -397 156 -452 243 l-29 45 0 198 0 199 46 -31 c25 -18 87
-52 138 -76z m-584 -1534 l0 -80 -320 0 -320 0 0 80 0 80 320 0 320 0 0 -80z
m1840 0 l0 -80 -320 0 -320 0 0 80 0 80 320 0 320 0 0 -80z m1840 0 l0 -80
-320 0 -320 0 0 80 0 80 320 0 320 0 0 -80z"/>
<path d="M3403 3028 c-55 -27 -50 -114 8 -138 89 -37 151 99 63 139 -30 13
-42 13 -71 -1z"/>
<path d="M3403 2388 c-55 -27 -50 -114 8 -138 89 -37 151 99 63 139 -30 13
-42 13 -71 -1z"/>
<path d="M3403 1748 c-55 -27 -50 -114 8 -138 89 -37 151 99 63 139 -30 13
-42 13 -71 -1z"/>
<path d="M443 3508 c-12 -6 -27 -23 -34 -39 -32 -78 67 -144 126 -84 65 64 -8
163 -92 123z"/>
<path d="M515 3175 c-36 -35 -32 -72 15 -143 106 -159 311 -285 486 -299 57
-5 62 -4 82 22 12 15 22 38 22 50 0 36 -37 74 -78 80 -157 27 -302 119 -394
252 -47 69 -91 81 -133 38z"/>
</g>
</svg>
