<?xml version="1.0" standalone="no"?>
<!DOCTYPE svg PUBLIC "-//W3C//DTD SVG 20010904//EN"
 "http://www.w3.org/TR/2001/REC-SVG-20010904/DTD/svg10.dtd">
<svg version="1.0" xmlns="http://www.w3.org/2000/svg"
 width="512.000000pt" height="512.000000pt" viewBox="0 0 512.000000 512.000000"
 preserveAspectRatio="xMidYMid meet">

<g transform="translate(0.000000,512.000000) scale(0.100000,-0.100000)"
fill="#000000" stroke="none">
<path d="M90 2318 l0 -2033 24 -50 c28 -60 66 -97 126 -124 45 -20 53 -21
2320 -21 l2275 0 50 24 c60 28 97 66 124 126 20 45 21 54 21 2078 l0 2032
-2470 0 -2470 0 0 -2032z m995 1237 c49 -48 19 -129 -53 -140 -71 -12 -81 -15
-112 -41 -66 -56 -64 -42 -70 -544 l-5 -455 -24 -45 c-13 -25 -36 -61 -52 -81
l-28 -36 23 -22 c13 -12 36 -45 52 -74 l29 -52 5 -455 c5 -419 6 -458 24 -493
25 -50 59 -73 136 -91 98 -22 129 -81 76 -143 -22 -25 -30 -28 -85 -27 -119 2
-233 82 -290 203 l-26 56 -5 456 -5 456 -27 35 c-30 39 -82 68 -123 68 -56 0
-94 36 -95 91 0 48 32 77 94 85 53 8 99 35 130 77 20 28 21 41 26 485 5 443 6
458 27 504 60 131 168 206 296 207 49 1 62 -3 82 -24z m3160 -5 c66 -32 131
-98 163 -168 l27 -57 5 -457 c5 -444 6 -457 26 -485 31 -42 77 -69 130 -77 62
-8 94 -37 94 -85 -1 -55 -39 -91 -95 -91 -41 0 -93 -29 -123 -68 l-27 -35 -5
-456 -5 -456 -26 -56 c-57 -121 -171 -201 -290 -203 -55 -1 -63 2 -85 27 -53
62 -22 121 76 143 77 18 111 41 136 91 18 35 19 74 24 493 5 448 5 456 28 497
12 23 36 58 52 77 l31 34 -27 29 c-14 15 -38 51 -53 78 l-26 50 -5 455 c-6
502 -4 488 -70 544 -31 26 -41 29 -112 41 -73 11 -102 92 -52 142 23 23 31 25
92 21 44 -2 84 -12 117 -28z m-2610 -575 c127 -34 231 -117 288 -234 l32 -66
0 -455 0 -455 -28 -59 c-37 -81 -89 -141 -159 -186 -236 -153 -556 -39 -638
228 -19 59 -20 94 -20 473 0 388 1 413 21 471 72 213 293 338 504 283z m1025
-1 c110 -26 197 -88 261 -187 64 -98 69 -143 69 -565 0 -205 -4 -393 -10 -423
-25 -131 -119 -252 -245 -310 -161 -76 -359 -36 -484 96 -57 60 -85 111 -106
192 -22 84 -22 789 1 883 36 152 152 272 303 312 83 21 129 22 211 2z m1025 1
c127 -34 230 -120 288 -242 32 -67 32 -70 32 -218 l0 -150 -34 -70 c-44 -90
-120 -166 -208 -208 -68 -32 -69 -32 -250 -35 l-183 -4 0 -270 0 -270 -29 -29
c-38 -37 -82 -39 -116 -4 l-25 24 0 719 c0 757 -1 735 45 760 33 18 408 15
480 -3z"/>
<path d="M1422 2784 c-64 -32 -108 -83 -127 -148 -22 -73 -22 -760 0 -832 51
-174 273 -237 407 -116 22 20 49 54 61 76 21 40 22 52 25 433 2 257 -1 406 -8
432 -39 147 -219 225 -358 155z"/>
<path d="M2455 2791 c-52 -23 -121 -99 -135 -148 -8 -26 -10 -164 -8 -444 l3
-406 30 -49 c52 -84 159 -133 255 -118 64 10 140 62 175 118 l30 49 3 406 c2
280 0 418 -8 444 -14 49 -83 125 -135 148 -26 12 -63 19 -105 19 -42 0 -79 -7
-105 -19z"/>
<path d="M3330 2514 l0 -296 163 4 c180 4 210 12 273 80 51 53 66 94 72 188 8
151 -35 242 -140 294 -49 25 -60 26 -210 26 l-158 0 0 -296z"/>
</g>
</svg>
