<?xml version="1.0" standalone="no"?>
<!DOCTYPE svg PUBLIC "-//W3C//DTD SVG 20010904//EN"
 "http://www.w3.org/TR/2001/REC-SVG-20010904/DTD/svg10.dtd">
<svg version="1.0" xmlns="http://www.w3.org/2000/svg"
 width="512.000000pt" height="512.000000pt" viewBox="0 0 512.000000 512.000000"
 preserveAspectRatio="xMidYMid meet">

<g transform="translate(0.000000,512.000000) scale(0.100000,-0.100000)"
fill="#000000" stroke="none">
<path d="M2118 5051 l-33 -29 -5 -127 -5 -127 -49 -19 c-54 -20 -66 -32 -66
-66 0 -16 -12 -29 -41 -43 -37 -20 -42 -20 -58 -6 -10 9 -24 16 -33 16 -24 0
-51 -37 -45 -62 4 -18 -2 -28 -33 -50 -22 -15 -42 -23 -45 -18 -12 20 -61 10
-96 -19 l-35 -29 -90 51 c-101 59 -153 67 -200 32 -15 -12 -106 -157 -218
-350 -174 -300 -191 -334 -191 -377 0 -60 26 -89 135 -149 79 -44 80 -44 74
-79 -12 -75 26 -68 -387 -72 l-372 -3 -50 -27 c-59 -31 -84 -57 -116 -118
l-24 -45 0 -1100 c0 -994 2 -1103 16 -1136 23 -51 75 -107 123 -132 39 -21 56
-22 310 -25 242 -3 270 -2 287 14 22 19 25 54 7 72 -9 9 -81 12 -262 12 -283
0 -316 7 -356 72 -20 33 -20 44 -18 1130 l3 1098 38 37 37 38 368 3 368 3 0
-95 0 -95 -278 -3 -278 -3 -32 -33 -33 -32 -3 -903 c-2 -636 0 -913 8 -940 7
-25 22 -45 43 -57 31 -20 68 -20 2107 -20 2039 0 2076 0 2107 20 21 12 36 32
43 57 8 27 10 304 8 940 l-3 903 -33 32 -32 33 -279 3 -278 3 -1 95 0 95 369
-3 369 -3 37 -38 38 -37 3 -1098 c2 -1086 2 -1097 -18 -1130 -12 -19 -38 -41
-63 -52 -41 -19 -89 -20 -1843 -20 -1386 0 -1803 -3 -1812 -12 -18 -18 -15
-53 6 -71 17 -15 64 -17 465 -17 246 0 447 -3 447 -7 0 -5 -32 -104 -71 -220
l-71 -213 -194 0 c-172 0 -199 -2 -232 -19 -105 -54 -140 -166 -84 -272 22
-43 38 -59 81 -81 l53 -28 988 0 988 0 53 28 c116 60 144 216 56 310 -52 56
-80 62 -291 62 l-194 0 -71 213 c-39 116 -71 215 -71 219 0 4 406 9 903 10
l902 3 41 22 c48 25 100 81 123 132 14 33 16 142 16 1136 l0 1100 -27 50 c-31
59 -57 84 -118 116 -45 24 -48 24 -417 27 -413 4 -375 -3 -387 72 -6 35 -5 35
74 79 109 60 135 89 135 149 0 43 -17 77 -191 377 -112 193 -203 338 -218 350
-47 35 -99 27 -200 -31 l-89 -52 -66 54 c-90 72 -248 166 -351 208 l-85 35 -5
126 -5 127 -33 29 -32 29 -440 0 -440 0 -32 -29z m1426 -875 c205 -235 306
-481 322 -781 19 -356 -123 -722 -380 -979 -110 -109 -211 -180 -349 -246
-375 -179 -849 -157 -1199 56 -66 40 -82 72 -53 104 26 29 45 25 149 -31 181
-96 351 -139 556 -139 310 0 578 105 793 310 373 354 481 899 268 1346 -58
121 -107 196 -190 287 -62 68 -71 91 -48 119 32 41 65 30 131 -46z m-837 33
c355 -49 645 -303 745 -654 33 -115 33 -344 0 -458 -115 -399 -455 -660 -862
-660 -407 0 -748 261 -862 660 -19 65 -23 103 -23 228 0 165 15 239 74 370
161 354 544 567 928 514z m-1633 -1120 c13 -67 11 -71 -80 -123 -102 -58 -127
-90 -121 -156 4 -36 41 -108 187 -360 100 -173 194 -327 208 -342 27 -29 77
-44 114 -34 13 3 59 26 102 51 44 25 83 45 88 45 4 0 36 -23 70 -51 84 -67
211 -143 328 -196 l95 -43 5 -114 c6 -128 18 -156 81 -188 31 -16 73 -18 439
-18 366 0 408 2 439 18 63 32 75 60 81 188 l5 114 95 43 c117 53 244 129 328
196 34 28 66 51 70 51 5 0 49 -23 98 -51 78 -44 94 -50 133 -46 31 4 51 13 71
33 16 16 110 171 210 344 146 252 183 324 187 360 6 66 -19 98 -121 156 -91
52 -93 56 -80 123 l7 31 263 0 264 0 0 -890 0 -890 -2050 0 -2050 0 0 890 0
890 264 0 264 0 6 -31z m713 -611 c41 -39 44 -80 9 -103 -22 -15 -27 -15 -54
-1 -34 18 -72 61 -72 83 0 60 65 72 117 21z m1229 -1740 c37 -112 69 -209 72
-215 3 -10 -101 -13 -498 -13 -397 0 -501 3 -498 13 3 6 35 103 72 215 l68
202 358 0 358 0 68 -202z m574 -353 c32 -17 54 -70 45 -108 -4 -14 -18 -36
-32 -49 l-25 -23 -988 0 -988 0 -26 24 c-48 46 -42 126 13 156 40 22 1959 22
2001 0z"/>
<path d="M2845 3721 c-24 -11 -104 -83 -199 -179 l-160 -161 -60 56 c-70 65
-108 83 -171 83 -123 0 -209 -112 -183 -237 10 -44 24 -61 162 -200 128 -128
158 -153 195 -163 46 -12 101 -7 138 13 39 21 183 168 183 186 0 23 -31 51
-55 51 -10 0 -53 -34 -96 -75 -69 -67 -81 -75 -116 -75 -37 0 -46 8 -176 138
-119 121 -137 143 -137 171 0 23 9 42 30 63 49 48 86 37 180 -57 52 -52 83
-75 100 -75 18 0 72 47 211 185 182 181 187 185 228 185 55 0 91 -34 91 -85 0
-27 -9 -45 -40 -79 -43 -47 -51 -81 -22 -102 29 -22 46 -16 94 34 60 61 69 82
69 148 0 78 -34 134 -103 168 -61 31 -108 33 -163 7z"/>
<path d="M2801 3296 c-21 -26 -10 -69 22 -80 23 -8 31 -6 49 12 18 18 20 26
12 49 -7 21 -17 29 -40 31 -18 2 -36 -3 -43 -12z"/>
<path d="M465 4290 c-14 -5 -27 -30 -44 -81 -27 -86 -71 -135 -142 -159 -41
-14 -44 -17 -44 -50 0 -32 4 -37 55 -63 81 -42 108 -72 131 -149 23 -74 37
-91 71 -86 24 3 36 23 63 101 23 66 60 106 122 134 58 25 69 39 59 77 -4 18
-18 29 -56 41 -30 10 -61 30 -80 51 -16 19 -30 36 -30 37 0 1 -11 33 -23 71
-24 72 -44 90 -82 76z m63 -333 c-21 -22 -38 -43 -38 -48 0 -4 -20 13 -44 39
l-44 46 41 46 42 47 41 -45 40 -46 -38 -39z"/>
<path d="M4675 4290 c-14 -5 -27 -30 -44 -81 -27 -86 -73 -137 -139 -157 -31
-9 -43 -19 -48 -37 -9 -38 1 -54 53 -76 73 -31 111 -73 134 -151 23 -74 37
-91 71 -86 24 3 36 23 63 101 23 66 58 104 124 135 52 25 56 29 56 62 0 32 -3
36 -44 50 -73 25 -109 65 -140 154 -29 82 -47 100 -86 86z m80 -315 c-13 -11
-31 -32 -40 -47 l-17 -28 -21 28 c-12 15 -32 35 -44 45 l-23 19 42 47 43 48
42 -46 41 -46 -23 -20z"/>
<path d="M1002 1028 c-27 -27 0 -88 40 -88 36 0 62 62 36 88 -15 15 -61 15
-76 0z"/>
</g>
</svg>
